<?xml version="1.0" encoding="iso-8859-1"?>
<!-- Generator: Adobe Illustrator 18.1.1, SVG Export Plug-In . SVG Version: 6.00 Build 0)  -->
<svg version="1.1" id="Capa_1" xmlns="http://www.w3.org/2000/svg" xmlns:xlink="http://www.w3.org/1999/xlink" x="0px" y="0px"
	 viewBox="0 0 32 32" style="enable-background:new 0 0 32 32;" xml:space="preserve">
<g>
	<g id="comment_x5F_alt2_x5F_stroke">
		<path style="fill:#030104;" d="M16,4c5.516,0,10,4.484,10,10s-4.484,10-10,10c-0.707,0-1.473-0.105-2.34-0.316l-1.703-0.422
			l-1.461,0.968l-0.457,0.301l0.004-0.684l0.008-1.652l-1.16-1.176C7.027,19.129,6,16.637,6,14C6,8.484,10.484,4,16,4 M16,0
			C8.27,0,2,6.27,2,14c0,3.832,1.547,7.297,4.043,9.828L6,32l6.703-4.434C13.766,27.828,14.859,28,16,28c7.73,0,14-6.27,14-14
			S23.73,0,16,0L16,0z"/>
	</g>
</g>
<g>
</g>
<g>
</g>
<g>
</g>
<g>
</g>
<g>
</g>
<g>
</g>
<g>
</g>
<g>
</g>
<g>
</g>
<g>
</g>
<g>
</g>
<g>
</g>
<g>
</g>
<g>
</g>
<g>
</g>
</svg>
